<?xml version="1.0" standalone="no"?>
<!DOCTYPE svg PUBLIC "-//W3C//DTD SVG 20010904//EN"
 "http://www.w3.org/TR/2001/REC-SVG-20010904/DTD/svg10.dtd">
<svg version="1.0" xmlns="http://www.w3.org/2000/svg"
 width="825.000000pt" height="825.000000pt" viewBox="0 0 825.000000 825.000000"
 preserveAspectRatio="xMidYMid meet">
<metadata>
Created by potrace 1.14, written by Peter Selinger 2001-2017
</metadata>
<g transform="translate(0.000000,825.000000) scale(0.100000,-0.100000)"
fill="#000000" stroke="none">
<path d="M3910 8214 c-19 -2 -91 -9 -160 -15 -462 -41 -980 -189 -1443 -413
-191 -92 -443 -243 -619 -369 -39 -28 -73 -45 -79 -41 -8 4 -9 3 -5 -4 7 -12
-89 -89 -105 -84 -5 1 -8 -2 -7 -6 2 -5 -26 -32 -62 -62 -102 -83 -419 -406
-494 -503 -38 -49 -72 -84 -78 -81 -6 4 -8 2 -4 -4 3 -6 -24 -51 -61 -101
-154 -208 -349 -537 -445 -754 -169 -380 -270 -751 -324 -1182 -22 -169 -29
-606 -15 -790 34 -417 167 -964 312 -1283 16 -34 29 -65 29 -68 0 -3 35 -76
79 -163 84 -168 167 -307 274 -461 74 -106 68 -98 120 -163 22 -26 35 -52 31
-58 -4 -7 -3 -9 3 -6 6 4 42 -33 81 -81 64 -79 392 -428 392 -416 0 2 16 -10
35 -27 19 -18 32 -36 28 -42 -3 -6 -1 -7 5 -3 13 8 209 -153 204 -167 -1 -5 2
-6 8 -2 5 3 36 -14 67 -38 309 -234 743 -461 1173 -612 219 -77 523 -147 795
-182 112 -14 209 -18 490 -18 405 0 481 8 890 89 101 20 331 89 507 152 70 25
133 42 139 38 7 -4 9 -3 6 3 -4 6 35 28 91 53 109 48 304 145 342 170 14 9 50
30 80 45 30 16 63 35 72 43 9 8 23 11 30 6 7 -4 10 -4 6 1 -7 7 130 106 149
108 4 0 21 13 37 28 17 15 41 34 55 41 15 7 31 19 37 27 7 8 16 11 24 6 8 -5
11 -4 6 3 -7 12 33 44 46 36 5 -3 7 -1 6 5 -4 14 103 101 115 94 6 -3 7 -1 3
5 -7 12 33 44 46 36 5 -3 7 -1 6 5 -2 5 22 33 52 61 100 94 164 157 253 248
49 50 90 90 92 89 7 -4 44 36 40 43 -2 4 16 29 40 56 25 27 45 51 45 54 0 13
42 50 50 45 6 -3 7 0 5 7 -8 21 80 129 93 116 8 -8 10 -5 7 13 -3 17 3 33 20
52 14 14 25 28 25 29 -4 12 14 37 24 31 6 -3 8 -3 4 2 -4 4 5 26 21 49 15 22
38 60 51 83 13 24 27 43 32 43 4 0 7 3 6 8 0 4 2 15 7 25 6 14 10 15 23 5 13
-11 14 -10 3 10 -7 14 -8 22 -1 22 5 0 9 3 9 8 -4 21 2 32 14 26 6 -4 9 -4 6
0 -4 4 23 66 60 139 56 110 107 222 111 242 1 3 12 30 26 62 115 259 236 748
281 1128 21 184 24 643 4 810 -75 643 -260 1193 -583 1734 -37 63 -68 118 -68
123 0 4 -3 8 -7 8 -5 0 -19 17 -33 38 -13 20 -42 61 -63 90 -21 29 -35 58 -31
64 4 6 3 8 -3 5 -14 -9 -37 19 -27 34 4 7 3 9 -4 5 -6 -3 -23 10 -39 30 -104
136 -398 444 -524 550 -25 22 -66 56 -90 76 -105 88 -364 268 -501 349 -48 27
-55 36 -45 48 10 12 9 13 -7 4 -15 -8 -37 0 -110 40 -80 44 -333 167 -342 167
-2 0 -27 11 -56 24 -192 86 -465 169 -788 241 -95 20 -345 53 -499 65 -124 9
-417 11 -501 4z"/>
<path d="M1703 775 c0 -8 4 -12 9 -9 5 3 6 10 3 15 -9 13 -12 11 -12 -6z"/>
</g>
</svg>
